# xmcd
#
# Track frame offsets:
#	150
#	14632
#	34715
#	52948
#	73910
#	92377
#	106770
#	124206
#	142121
#	159337
#
# Disc length: 2313 seconds
#
# Revision: 1
# Processed by: cddbd v1.5.1PL2 Copyright (c) Steve Scherf et al.
# Submitted via: audiograbber 1.83.01
#
DISCID=8109070a
DTITLE=SLADJANA DELIBASIC - Nekad i sad
DYEAR=2004
DGENRE=Pop/Funk
TTITLE0=Dupla doza
TTITLE1=U tvojoj sobi
TTITLE2=Pinokio
TTITLE3=Lazi me
TTITLE4=Prorok
TTITLE5=Hajde reci medu
TTITLE6=Kazna
TTITLE7=Hajde dodji
TTITLE8=Nepodnosljiva
TTITLE9=Po nervima
EXTD=
EXTT0=
EXTT1=
EXTT2=
EXTT3=
EXTT4=
EXTT5=
EXTT6=
EXTT7=
EXTT8=
EXTT9=
PLAYORDER=
